<svg width="40" height="40" viewBox="0 0 40 40" fill="none" xmlns="http://www.w3.org/2000/svg">
<path d="M19.6753 0C14.4356 0.0624423 9.43174 2.18771 5.74861 5.91499C2.06549 9.64227 0 14.6711 0 19.9112C0 25.1512 2.06549 30.1801 5.74861 33.9073C9.43174 37.6346 14.4356 39.7599 19.6753 39.8223H39.5879V19.9126C39.5879 14.6314 37.4899 9.56659 33.7556 5.83226C30.0213 2.09793 24.9564 0 19.6753 0V0ZM35.6348 35.8466H31.6534V25.8903C31.6528 24.7093 31.3021 23.5549 30.6455 22.5732C29.989 21.5914 29.0561 20.8264 27.9648 20.3748C26.8735 19.9233 25.6728 19.8054 24.5145 20.0362C23.3562 20.2669 22.2923 20.8359 21.4574 21.6712C20.6225 22.5066 20.054 23.5707 19.8238 24.7291C19.5936 25.8875 19.712 27.0881 20.1641 28.1792C20.6162 29.2703 21.3816 30.2028 22.3637 30.8589C23.3457 31.515 24.5003 31.8652 25.6813 31.8652H27.6607V35.8466H25.6813C23.712 35.8472 21.7868 35.2637 20.1491 34.17C18.5114 33.0764 17.2349 31.5216 16.4809 29.7024C15.7269 27.8831 15.5293 25.8812 15.9131 23.9497C16.297 22.0181 17.245 20.2438 18.6373 18.8511C20.0296 17.4585 21.8036 16.5099 23.7351 16.1255C25.6665 15.7411 27.6685 15.9381 29.4879 16.6916C31.3074 17.4451 32.8625 18.7212 33.9566 20.3586C35.0508 21.996 35.6348 23.921 35.6348 25.8903V35.8466Z" fill="#171617"/>
</svg>
